<?xml version="1.0" encoding="UTF-8" standalone="no"?>
<!DOCTYPE svg PUBLIC "-//W3C//DTD SVG 1.1//EN"
 "http://www.w3.org/Graphics/SVG/1.1/DTD/svg11.dtd">
<!-- Generated by graphviz version 9.0.0 (20230911.1827)
 -->
<!-- Title: DependenciesGraph Pages: 1 -->
<svg width="215pt" height="396pt"
 viewBox="7.20 36.00 208.07 360.00" xmlns="http://www.w3.org/2000/svg" xmlns:xlink="http://www.w3.org/1999/xlink">
<g id="graph0" class="graph" transform="scale(1 1) rotate(0) translate(43.2 324)">
<title>DependenciesGraph</title>
<polygon fill="white" stroke="none" points="-36,36 -36,-288 164.88,-288 164.88,36 -36,36"/>
<!-- Foo -->
<g id="node1" class="node">
<title>Foo</title>
<polygon fill="none" stroke="black" points="54,-144 0,-144 0,-108 54,-108 54,-144"/>
<text text-anchor="middle" x="27" y="-120.95" font-family="Times,serif" font-size="14.00">Foo</text>
</g>
<!-- Common -->
<g id="node2" class="node">
<title>Common</title>
<polygon fill="none" stroke="black" points="128.88,-36 61.12,-36 61.12,0 128.88,0 128.88,-36"/>
<text text-anchor="middle" x="95" y="-12.95" font-family="Times,serif" font-size="14.00">Common</text>
</g>
<!-- Foo&#45;&gt;Common -->
<g id="edge1" class="edge">
<title>Foo&#45;&gt;Common</title>
<path fill="none" stroke="black" d="M37.93,-107.97C48.67,-91.22 65.23,-65.41 77.75,-45.89"/>
<polygon fill="black" stroke="black" points="80.6,-47.92 83.06,-37.61 74.71,-44.14 80.6,-47.92"/>
</g>
<!-- Bar -->
<g id="node3" class="node">
<title>Bar</title>
<polygon fill="none" stroke="black" points="122,-252 68,-252 68,-216 122,-216 122,-252"/>
<text text-anchor="middle" x="95" y="-228.95" font-family="Times,serif" font-size="14.00">Bar</text>
</g>
<!-- Bar&#45;&gt;Foo -->
<g id="edge2" class="edge">
<title>Bar&#45;&gt;Foo</title>
<path fill="none" stroke="black" d="M84.07,-215.97C73.33,-199.22 56.77,-173.41 44.25,-153.89"/>
<polygon fill="black" stroke="black" points="47.29,-152.14 38.94,-145.61 41.4,-155.92 47.29,-152.14"/>
</g>
<!-- Bar&#45;&gt;Common -->
<g id="edge3" class="edge">
<title>Bar&#45;&gt;Common</title>
<path fill="none" stroke="black" d="M95,-215.85C95,-179.14 95,-92.66 95,-47.53"/>
<polygon fill="black" stroke="black" points="98.5,-47.75 95,-37.75 91.5,-47.75 98.5,-47.75"/>
</g>
</g>
</svg>
